<?xml version="1.0" encoding="utf-8"?>
<!-- Generator: Adobe Illustrator 20.1.0, SVG Export Plug-In . SVG Version: 6.00 Build 0)  -->
<svg version="1.1" id="Layer_1" xmlns="http://www.w3.org/2000/svg" xmlns:xlink="http://www.w3.org/1999/xlink" x="0px" y="0px"
	 viewBox="0 0 428.2 193.3" style="enable-background:new 0 0 428.2 193.3;" xml:space="preserve">
<style type="text/css">
	.st0{fill:#0880AF;}
	.st1{fill:#CCCCCC;}
	.st2{fill:#FFFFFF;}
	.st3{fill:#1786BE;}
</style>
<title>50</title>
<g>
	<g id="Layer_2">
		<g id="Layer_1-2">
			<g>
				<path class="st0" d="M130.9,153.4c-17-23.3-22.7-52.9-15.6-80.8c-5.1-3.2-10.6-5.7-16.4-7.4c-8.4-2.5-17.2-3.7-25.9-3.6
					c-5.2-0.1-10.3,0.4-15.4,1.5c-0.2,0-0.3,0.1-0.5,0.1l1.6-22.4h71.6V0.8H18.3L11,94.7l25.9,12.8l2.6-1.1
					c4.1-1.7,8.3-3.2,12.5-4.3c7.6-2,15.6-2,23.2,0c3.2,0.8,6.2,2.2,8.9,4.2c2.4,1.8,4.4,4.2,5.8,6.9c1.5,3.1,2.2,6.4,2.1,9.9
					c0.1,3.8-0.6,7.6-2,11.1c-1.2,2.8-3.2,5.2-5.6,7.1c-5.3,4-13.2,6.3-24.4,6.3c-5.7-0.1-11.5-0.6-17.1-1.7
					c-8.4-1.7-16.7-3.8-24.9-6.4l-5.8-1.7L0,173.7l4.7,2.5c5.1,2.7,10.4,4.9,15.9,6.5c5.4,1.6,10.9,2.9,16.4,3.9
					c5.2,1,10.5,1.6,15.8,2c5,0.4,9.6,0.5,13.7,0.5c9.6,0.1,19.1-1.3,28.4-3.9c2.7-0.8,5.3-1.7,7.8-2.7
					C105.5,174.5,112.7,163.3,130.9,153.4z"/>
				<path class="st1" d="M170,139.5c-24.8-22.9-26.2-61.6-3.3-86.3S228.2,27,253,49.9s26.2,61.6,3.3,86.3c0,0-0.1,0.1-0.1,0.1
					c11.7,2.2,23.1,6.1,33.6,11.7c29.4-43.3,18.2-102.2-25.1-131.6S162.6-1.9,133.1,41.4c-22.7,33.4-21.8,77.4,2.3,109.8
					C144.4,146.8,155.7,142.8,170,139.5z"/>
				<path class="st1" d="M272.6,94.8c0,15.4-5.8,30.3-16.4,41.5c11.7,2.2,23.1,6.1,33.6,11.7c29.4-43.3,18.2-102.2-25.1-131.6
					C249.1,5.7,230.5,0,211.5,0c-0.1,0-0.2,0-0.3,0v33.7c0.1,0,0.2,0,0.3,0C245.2,33.7,272.5,61,272.6,94.8z"/>
				<path class="st0" d="M101.3,193.3c0,0,18.5-38.6,88.3-50.4c82.3-13.9,113.1,13.8,113.1,13.8s-34.2-33.3-115-20.5
					C95.8,150.7,101.3,193.3,101.3,193.3z"/>
				<g>
					<path class="st1" d="M347.8,91.1c-13.4,0-22.4-13.2-22.4-28.9c0-15.9,9.2-29.2,22.7-29.2c13.4,0,22.4,13.2,22.4,28.9
						C370.5,77.8,361.3,91.1,347.8,91.1z M348.6,148h-13.5L405,34.3h13.5L348.6,148z M347.8,45.5c-6.4,0-10.2,7.3-10.2,16.4
						c0,9.4,4.4,16.7,10.5,16.7c6.4,0,10.2-7.3,10.2-16.4C358.3,52.8,353.9,45.5,347.8,45.5z M405.6,149.3
						c-13.4,0-22.4-13.2-22.4-28.9c0-15.9,9.2-29.2,22.7-29.2c13.4,0,22.4,13.2,22.4,28.9C428.2,136,419.1,149.3,405.6,149.3
						L405.6,149.3z M405.6,103.6c-6.4,0-10.2,7.3-10.2,16.4c0,9.4,4.4,16.7,10.5,16.7c6.4,0,10.2-7.3,10.2-16.4
						C416.1,111,411.7,103.6,405.6,103.6L405.6,103.6z"/>
				</g>
				<g>
					<path class="st0" d="M166.7,181.2c1.5,0,2.9-0.6,3.9-1.8l1.2,1c-1.3,1.5-3.1,2.4-5.1,2.3c-3.4,0-6.2-2.7-6.2-6.1
						c0-0.1,0-0.2,0-0.3c0-3.6,2.5-6.5,6-6.5c3.7,0,5.8,2.9,5.8,6.6c0,0.2,0,0.4,0,0.6h-9.8C162.4,179.3,164.4,181.2,166.7,181.2z
						 M170.3,175.6c-0.2-2.3-1.5-4.2-4-4.2c-2.2,0-3.8,1.8-4,4.2H170.3z"/>
					<path class="st0" d="M177.3,182.5h-1.8v-12.4h1.8v2.2c0.9-1.5,2.5-2.5,4.2-2.4c3,0,4.8,2,4.8,5v7.7h-1.8v-7.2
						c0-2.3-1.2-3.7-3.4-3.7c-2,0-3.7,1.6-3.7,3.6c0,0.1,0,0.2,0,0.3V182.5z"/>
					<path class="st0" d="M195.7,186.4c-2,0-4-0.6-5.6-1.7l0.8-1.4c1.4,1,3.1,1.6,4.8,1.6c2.7,0,4.5-1.5,4.5-4.4v-1.5
						c-1.1,1.6-2.9,2.6-4.9,2.6c-3.2,0-5.8-2.6-5.8-5.9c0-3.2,2.6-5.8,5.8-5.8c1.9,0,3.7,0.9,4.8,2.5v-2.2h1.8v10.2
						C202,184.3,199.5,186.4,195.7,186.4z M195.7,171.5c-2.3-0.1-4.2,1.6-4.3,3.9c0,0.1,0,0.2,0,0.3c0,2.3,1.8,4.2,4.1,4.2
						c0.1,0,0.1,0,0.2,0c2.3,0.2,4.4-1.6,4.5-3.9c0.2-2.3-1.6-4.4-3.9-4.5C196.1,171.4,195.9,171.4,195.7,171.5z"/>
					<path class="st0" d="M206.9,172.5l-0.6-1.5c1.4-0.7,2.9-1,4.5-1c3.4,0,5.3,1.7,5.3,5v7.6h-1.8v-1.9c-1.1,1.4-2.7,2.2-4.5,2.1
						c-2.3,0-4.6-1.3-4.6-3.9c0-2.6,2.2-4,5.3-4c1.3,0,2.6,0.2,3.8,0.5v-0.4c0-2.2-1.4-3.4-3.7-3.4
						C209.3,171.6,208.1,171.9,206.9,172.5z M207.1,178.8c0,1.6,1.4,2.5,3.1,2.5c2.3,0,4.2-1.4,4.2-3.4v-1.2
						c-1.2-0.3-2.4-0.5-3.6-0.5C208.4,176.2,207.1,177.2,207.1,178.8L207.1,178.8z"/>
					<path class="st0" d="M225.6,186.4c-2,0-4-0.6-5.6-1.7l0.8-1.4c1.4,1,3.1,1.6,4.8,1.6c2.7,0,4.5-1.5,4.5-4.4v-1.5
						c-1.1,1.6-2.9,2.6-4.9,2.6c-3.2,0-5.8-2.6-5.8-5.9c0-3.2,2.6-5.8,5.8-5.8c1.9,0,3.7,0.9,4.8,2.5v-2.2h1.8v10.2
						C231.9,184.3,229.4,186.4,225.6,186.4z M225.5,171.5c-2.3-0.1-4.2,1.6-4.3,3.9c0,0.1,0,0.2,0,0.3c0,2.3,1.8,4.2,4.1,4.2
						c0.1,0,0.1,0,0.2,0c2.3,0.2,4.4-1.6,4.5-3.9c0.2-2.3-1.6-4.4-3.9-4.5C226,171.4,225.7,171.4,225.5,171.5z"/>
					<path class="st0" d="M241.5,181.2c1.5,0,2.9-0.6,3.9-1.8l1.2,1c-1.3,1.5-3.1,2.4-5.1,2.3c-3.4,0-6.2-2.7-6.2-6.1
						c0-0.1,0-0.2,0-0.3c0-3.6,2.5-6.5,6-6.5c3.7,0,5.8,2.9,5.8,6.6c0,0.2,0,0.4,0,0.6h-9.8C237.2,179.3,239.1,181.2,241.5,181.2z
						 M245.1,175.6c-0.2-2.3-1.5-4.2-4-4.2c-2.2,0-3.8,1.8-4,4.2H245.1z"/>
					<path class="st0" d="M264.4,169.8c2.9,0,4.6,1.9,4.6,5v7.7h-1.8v-7.2c0-2.4-1.2-3.7-3.2-3.7c-1.9,0-3.4,1.4-3.4,3.8v7.2h-1.8
						v-7.3c0-2.3-1.2-3.7-3.2-3.7s-3.5,1.6-3.5,3.9v7.1h-1.8v-12.4h1.8v2.1c0.8-1.5,2.3-2.4,4-2.4c1.7-0.1,3.3,0.9,4,2.5
						C260.9,170.7,262.6,169.8,264.4,169.8z"/>
					<path class="st0" d="M278.5,181.2c1.5,0,2.9-0.6,3.9-1.8l1.2,1c-1.3,1.5-3.1,2.4-5.1,2.3c-3.4,0-6.2-2.7-6.2-6.1
						c0-0.1,0-0.2,0-0.3c0-3.6,2.5-6.5,6-6.5c3.7,0,5.8,2.9,5.8,6.6c0,0.2,0,0.4,0,0.6h-9.8C274.2,179.3,276.1,181.2,278.5,181.2z
						 M282.1,175.6c-0.2-2.3-1.5-4.2-4-4.2c-2.2,0-3.8,1.8-4,4.2H282.1z"/>
					<path class="st0" d="M289.1,182.5h-1.8v-12.4h1.8v2.2c0.9-1.5,2.5-2.5,4.2-2.4c3,0,4.8,2,4.8,5v7.7h-1.8v-7.2
						c0-2.3-1.2-3.7-3.4-3.7c-2,0-3.7,1.6-3.7,3.6c0,0.1,0,0.2,0,0.3V182.5z"/>
					<path class="st0" d="M304.5,179c-0.1,1,0.6,1.9,1.6,2.1c0.2,0,0.3,0,0.5,0c0.6,0,1.2-0.1,1.8-0.4v1.6c-0.7,0.4-1.5,0.5-2.2,0.5
						c-1.7,0.2-3.3-1-3.5-2.8c0-0.2,0-0.5,0-0.7v-7.5h-1.7v-1.6h1.7v-3.7h1.8v3.7h3.9v1.6h-3.9V179z"/>
				</g>
			</g>
			<rect x="147.9" y="159.5" class="st2" width="168" height="33.8"/>
			<g>
				<path class="st3" d="M162.4,181.6c-2.3,0-3.8-1.2-4.8-2.6v6.2h-1.8v-16.2h1.8v2.5c1-1.5,2.5-2.8,4.8-2.8c3,0,5.9,2.4,5.9,6.5
					C168.3,179.2,165.4,181.6,162.4,181.6z M162.1,170.3c-2.3,0-4.5,1.9-4.5,4.8c0,2.9,2.2,4.8,4.5,4.8c2.4,0,4.4-1.8,4.4-4.8
					C166.4,172.2,164.4,170.3,162.1,170.3z"/>
				<path class="st3" d="M172.5,171.3l-0.6-1.5c1.4-0.6,2.7-1,4.5-1c3.4,0,5.3,1.7,5.3,5v7.6h-1.8v-1.9c-0.9,1.1-2.3,2.1-4.5,2.1
					c-2.3,0-4.6-1.3-4.6-3.9c0-2.6,2.2-4,5.3-4c1.6,0,2.7,0.2,3.8,0.5v-0.4c0-2.2-1.4-3.4-3.7-3.4
					C174.8,170.4,173.6,170.7,172.5,171.3z M172.7,177.6c0,1.6,1.4,2.5,3.1,2.5c2.3,0,4.2-1.4,4.2-3.4v-1.2
					c-0.9-0.3-2.1-0.5-3.6-0.5C174,175,172.7,176,172.7,177.6z"/>
				<path class="st3" d="M187.5,181.3h-1.8v-12.4h1.8v3.2c0.9-2.1,2.7-3.6,5.1-3.5v2h-0.1c-2.7,0-4.9,1.9-4.9,5.7V181.3z"/>
				<path class="st3" d="M197.9,177.8c0,1.5,0.8,2.1,2.1,2.1c0.6,0,1.2-0.1,1.8-0.4v1.6c-0.6,0.3-1.3,0.5-2.2,0.5
					c-2,0-3.5-1-3.5-3.5v-7.5h-1.7v-1.6h1.7v-3.7h1.8v3.7h3.9v1.6h-3.9V177.8z"/>
				<path class="st3" d="M205.1,166.2v-2h2.1v2H205.1z M205.2,181.3v-12.4h1.8v12.4H205.2z"/>
				<path class="st3" d="M217,181.6c-3.6,0-6.4-3-6.4-6.5c0-3.5,2.7-6.5,6.4-6.5c2.4,0,3.8,1,5,2.2l-1.2,1.3c-1-1-2.1-1.9-3.8-1.9
					c-2.5,0-4.4,2.1-4.4,4.8c0,2.7,2,4.8,4.6,4.8c1.6,0,2.8-0.8,3.8-1.8l1.2,1.1C220.8,180.6,219.3,181.6,217,181.6z"/>
				<path class="st3" d="M225.1,166.2v-2h2.1v2H225.1z M225.2,181.3v-12.4h1.8v12.4H225.2z"/>
				<path class="st3" d="M238,181.6c-2.3,0-3.8-1.2-4.8-2.6v6.2h-1.8v-16.2h1.8v2.5c1-1.5,2.5-2.8,4.8-2.8c3,0,5.9,2.4,5.9,6.5
					C243.9,179.2,241,181.6,238,181.6z M237.7,170.3c-2.3,0-4.5,1.9-4.5,4.8c0,2.9,2.2,4.8,4.5,4.8c2.4,0,4.4-1.8,4.4-4.8
					C242,172.2,240,170.3,237.7,170.3z"/>
				<path class="st3" d="M248,171.3l-0.6-1.5c1.4-0.6,2.7-1,4.5-1c3.4,0,5.3,1.7,5.3,5v7.6h-1.8v-1.9c-0.9,1.1-2.3,2.1-4.5,2.1
					c-2.3,0-4.6-1.3-4.6-3.9c0-2.6,2.2-4,5.3-4c1.6,0,2.7,0.2,3.8,0.5v-0.4c0-2.2-1.4-3.4-3.7-3.4
					C250.3,170.4,249.2,170.7,248,171.3z M248.3,177.6c0,1.6,1.4,2.5,3.1,2.5c2.3,0,4.2-1.4,4.2-3.4v-1.2c-0.9-0.3-2.1-0.5-3.6-0.5
					C249.6,175,248.3,176,248.3,177.6z"/>
				<path class="st3" d="M263.6,177.8c0,1.5,0.8,2.1,2.1,2.1c0.6,0,1.2-0.1,1.8-0.4v1.6c-0.6,0.3-1.3,0.5-2.2,0.5
					c-2,0-3.5-1-3.5-3.5v-7.5H260v-1.6h1.7v-3.7h1.8v3.7h3.9v1.6h-3.9V177.8z"/>
				<path class="st3" d="M270.8,166.2v-2h2.1v2H270.8z M271,181.3v-12.4h1.8v12.4H271z"/>
				<path class="st3" d="M282.8,181.6c-3.7,0-6.4-2.9-6.4-6.5s2.7-6.5,6.5-6.5c3.7,0,6.5,2.9,6.5,6.5S286.5,181.6,282.8,181.6z
					 M282.8,170.3c-2.7,0-4.5,2.1-4.5,4.8c0,2.7,2,4.8,4.6,4.8c2.7,0,4.6-2.1,4.6-4.8C287.4,172.4,285.4,170.3,282.8,170.3z"/>
				<path class="st3" d="M294.5,181.3h-1.8v-12.4h1.8v2.2c0.8-1.3,2.1-2.4,4.2-2.4c3,0,4.8,2,4.8,5v7.7h-1.8V174
					c0-2.3-1.2-3.7-3.4-3.7c-2.1,0-3.7,1.6-3.7,3.9V181.3z"/>
			</g>
		</g>
	</g>
</g>
</svg>
