<svg xmlns="http://www.w3.org/2000/svg" viewBox="0 0 427.14235 91.35265">
  <defs>
    <style>
      .cls-1 {
        isolation: isolate;
      }

      .cls-2 {
        mix-blend-mode: overlay;
      }

      .cls-3 {
        fill: #ccc;
      }
    </style>
  </defs>
  <title>csr</title>
  <g class="cls-1">
    <g id="Layer_2" data-name="Layer 2">
      <g id="Layer_1-2" data-name="Layer 1">
        <g>
          <g>
            <g class="cls-2">
              <path class="cls-3" d="M289.95631,63.08622a4.80064,4.80064,0,0,1,.06641-9.60059,4.837,4.837,0,0,1,3.63281,1.44531l-1.04736,1.207a3.69182,3.69182,0,0,0-2.59912-1.15332,3.31106,3.31106,0,0,0,0,6.60352,3.64029,3.64029,0,0,0,2.66553-1.207l1.04736,1.06055A4.789,4.789,0,0,1,289.95631,63.08622Z"/>
              <path class="cls-3" d="M299.59157,63.08622a4.8006,4.8006,0,1,1,4.8667-4.81348A4.71463,4.71463,0,0,1,299.59157,63.08622Zm0-8.10156a3.13977,3.13977,0,0,0-3.12939,3.28809,3.18448,3.18448,0,0,0,3.15625,3.31543,3.14021,3.14021,0,0,0,3.12891-3.28906A3.18324,3.18324,0,0,0,299.59157,54.98466Z"/>
              <path class="cls-3" d="M312.38161,62.927l-2.28076-3.23535h-2.042V62.927H306.428V53.64481h4.13721c2.13477,0,3.44727,1.127,3.44727,2.94434a2.77914,2.77914,0,0,1-2.21436,2.82422l2.50635,3.51367Zm-1.94922-7.79687h-2.37354v3.11621h2.38672c1.167,0,1.90967-.61035,1.90967-1.56445C312.35524,55.66044,311.63893,55.13016,310.43239,55.13016Z"/>
              <path class="cls-3" d="M319.48414,59.94364h-1.84326V62.927H316.01V53.64481h3.65967c2.16162,0,3.52734,1.21973,3.52734,3.11621C323.197,58.85673,321.52614,59.94364,319.48414,59.94364Zm.05322-4.81348h-1.89648V58.472h1.89648c1.23291,0,2.002-.67676,2.002-1.6709C321.53932,55.70048,320.75709,55.13016,319.53737,55.13016Z"/>
              <path class="cls-3" d="M329.29225,63.08622a4.8006,4.8006,0,1,1,4.8667-4.81348A4.71463,4.71463,0,0,1,329.29225,63.08622Zm0-8.10156a3.13977,3.13977,0,0,0-3.12939,3.28809,3.18448,3.18448,0,0,0,3.15625,3.31543,3.14021,3.14021,0,0,0,3.12891-3.28906A3.18324,3.18324,0,0,0,329.29225,54.98466Z"/>
              <path class="cls-3" d="M342.08229,62.927l-2.28076-3.23535h-2.042V62.927h-1.63086V53.64481h4.13721c2.13477,0,3.44727,1.127,3.44727,2.94434a2.77914,2.77914,0,0,1-2.21436,2.82422l2.50635,3.51367Zm-1.94922-7.79687h-2.37354v3.11621h2.38672c1.167,0,1.90967-.61035,1.90967-1.56445C342.05592,55.66044,341.33961,55.13016,340.13307,55.13016Z"/>
              <path class="cls-3" d="M354.595,62.927h-1.72412l-.94141-2.24121h-4.38867l-.95508,2.24121H344.9153l4.084-9.34863H350.511Zm-4.8667-7.39941-1.59082,3.71289h3.19531Z"/>
              <path class="cls-3" d="M358.91286,62.927h-1.644V55.15653H354.325V53.64481h7.53174v1.51172h-2.94385Z"/>
              <path class="cls-3" d="M370.45827,55.1038h-5.251v2.41309h4.6543v1.459h-4.6543v2.49219h5.31738v1.459h-6.94824V53.64481h6.88184Z"/>
              <path class="cls-3" d="M380.012,57.54325c1.9624.47754,2.9834,1.18066,2.9834,2.73145,0,1.751-1.36572,2.78516-3.31494,2.78516a5.71926,5.71926,0,0,1-3.87158-1.48535l.981-1.167a4.2731,4.2731,0,0,0,2.93066,1.207c1.00781,0,1.644-.46387,1.644-1.18066,0-.67578-.37109-1.03418-2.09473-1.43164-1.97607-.47754-3.08984-1.06055-3.08984-2.78516,0-1.61719,1.32617-2.7041,3.16895-2.7041a5.14426,5.14426,0,0,1,3.36816,1.166l-.875,1.2334a4.21635,4.21635,0,0,0-2.51953-.9541c-.95459,0-1.51172.49023-1.51172,1.11328C377.8108,56.80106,378.23512,57.11942,380.012,57.54325Z"/>
              <path class="cls-3" d="M389.343,63.08622a4.8006,4.8006,0,1,1,4.8667-4.81348A4.71463,4.71463,0,0,1,389.343,63.08622Zm0-8.10156a3.13977,3.13977,0,0,0-3.12939,3.28809,3.18448,3.18448,0,0,0,3.15625,3.31543,3.14021,3.14021,0,0,0,3.12891-3.28906A3.18324,3.18324,0,0,0,389.343,54.98466Z"/>
              <path class="cls-3" d="M400.489,63.08622a4.80064,4.80064,0,0,1,.06641-9.60059,4.837,4.837,0,0,1,3.63281,1.44531l-1.04736,1.207a3.69182,3.69182,0,0,0-2.59912-1.15332,3.31106,3.31106,0,0,0,0,6.60352,3.64112,3.64112,0,0,0,2.66553-1.207l1.04736,1.06055A4.789,4.789,0,0,1,400.489,63.08622Z"/>
              <path class="cls-3" d="M407.68434,53.64481V62.927h-1.63086V53.64481Z"/>
              <path class="cls-3" d="M419.04616,62.927H417.322l-.94141-2.24121H411.992l-.95508,2.24121h-1.67041l4.084-9.34863h1.51172Zm-4.8667-7.39941-1.59082,3.71289h3.19531Z"/>
              <path class="cls-3" d="M420.63161,53.64481h1.63086v7.79688h4.87988V62.927h-6.51074Z"/>
              <path class="cls-3" d="M305.96022,77.8372l-2.28076-3.23535h-2.042V77.8372h-1.63086V68.555h4.13721c2.13477,0,3.44727,1.127,3.44727,2.94434a2.77914,2.77914,0,0,1-2.21436,2.82422l2.50635,3.51367ZM304.011,70.04032h-2.37354v3.11621h2.38672c1.167,0,1.90967-.61035,1.90967-1.56445C305.93385,70.57059,305.21754,70.04032,304.011,70.04032Z"/>
              <path class="cls-3" d="M316.47047,70.014h-5.251V72.427h4.6543v1.459h-4.6543v2.49219h5.31738v1.459h-6.94824V68.555h6.88184Z"/>
              <path class="cls-3" d="M322.0486,72.45341c1.9624.47754,2.9834,1.18066,2.9834,2.73145,0,1.751-1.36572,2.78516-3.31494,2.78516a5.71926,5.71926,0,0,1-3.87158-1.48535l.981-1.167a4.2731,4.2731,0,0,0,2.93066,1.207c1.00781,0,1.644-.46387,1.644-1.18066,0-.67578-.37109-1.03418-2.09521-1.43164-1.97559-.47754-3.08936-1.06055-3.08936-2.78516,0-1.61719,1.32617-2.7041,3.16895-2.7041a5.14426,5.14426,0,0,1,3.36816,1.166l-.875,1.2334a4.21635,4.21635,0,0,0-2.51953-.9541c-.95459,0-1.51172.49023-1.51172,1.11328C319.84743,71.71122,320.27174,72.02958,322.0486,72.45341Z"/>
              <path class="cls-3" d="M330.42457,74.8538h-1.84326v2.9834h-1.63086V68.555h3.65967c2.16162,0,3.52734,1.21973,3.52734,3.11621C334.13747,73.76688,332.46657,74.8538,330.42457,74.8538Zm.05322-4.81348h-1.89648v3.3418h1.89648c1.23291,0,2.002-.67676,2.002-1.6709C332.47975,70.61063,331.69752,70.04032,330.4778,70.04032Z"/>
              <path class="cls-3" d="M340.23268,77.99638a4.8006,4.8006,0,1,1,4.8667-4.81348A4.71463,4.71463,0,0,1,340.23268,77.99638Zm0-8.10156a3.13977,3.13977,0,0,0-3.12939,3.28809,3.18448,3.18448,0,0,0,3.15625,3.31543,3.14021,3.14021,0,0,0,3.12891-3.28906A3.18324,3.18324,0,0,0,340.23268,69.89481Z"/>
              <path class="cls-3" d="M353.553,68.555h1.60449V77.8372h-1.36572l-5.11816-6.60352V77.8372h-1.60449V68.555h1.51172l4.97217,6.418Z"/>
              <path class="cls-3" d="M361.1194,72.45341c1.9624.47754,2.9834,1.18066,2.9834,2.73145,0,1.751-1.36572,2.78516-3.31494,2.78516a5.71926,5.71926,0,0,1-3.87158-1.48535l.981-1.167a4.2731,4.2731,0,0,0,2.93066,1.207c1.00781,0,1.644-.46387,1.644-1.18066,0-.67578-.37109-1.03418-2.09473-1.43164-1.97607-.47754-3.08984-1.06055-3.08984-2.78516,0-1.61719,1.32617-2.7041,3.16895-2.7041a5.14426,5.14426,0,0,1,3.36816,1.166l-.875,1.2334a4.21635,4.21635,0,0,0-2.51953-.9541c-.95459,0-1.51172.49023-1.51172,1.11328C358.91823,71.71122,359.34254,72.02958,361.1194,72.45341Z"/>
              <path class="cls-3" d="M367.74538,68.555V77.8372h-1.63086V68.555Z"/>
              <path class="cls-3" d="M377.43629,70.929a2.20176,2.20176,0,0,1-1.32617,2.082,2.27919,2.27919,0,0,1,1.84326,2.2666c0,1.6709-1.36572,2.55957-3.43408,2.55957h-4.29639V68.555h4.16357C376.25612,68.555,377.43629,69.47,377.43629,70.929Zm-1.63086.26465c0-.75586-.5835-1.19336-1.63086-1.19336h-2.34717v2.4668h2.22754C375.1028,72.46708,375.80543,72.05595,375.80543,71.19364Zm.51709,3.91211c0-.7959-.623-1.25977-1.90967-1.25977h-2.58545v2.5459h2.70508C375.64625,76.39188,376.32252,75.95438,376.32252,75.10575Z"/>
              <path class="cls-3" d="M381.51539,68.555V77.8372h-1.63086V68.555Z"/>
              <path class="cls-3" d="M383.99293,68.555h1.63086v7.79688h4.87988V77.8372h-6.51074Z"/>
              <path class="cls-3" d="M393.92018,68.555V77.8372h-1.63086V68.555Z"/>
              <path class="cls-3" d="M400.32252,77.8372h-1.644V70.06669h-2.94385V68.555h7.53174v1.51172h-2.94385Z"/>
              <path class="cls-3" d="M409.36159,77.8372h-1.64453V74.177L404.031,68.555h1.92236l2.59912,4.11133L411.178,68.555h1.86963l-3.686,5.583Z"/>
            </g>
            <g class="cls-2">
              <path class="cls-3" d="M333.05983,46.25516a12.71805,12.71805,0,0,1-12.92236-12.958v-.07227a12.80617,12.80617,0,0,1,13.13818-13.03027,13.00087,13.00087,0,0,1,9.93506,3.8877l-3.52783,4.06738A9.29806,9.29806,0,0,0,333.24,25.30595c-4.24756,0-7.30713,3.52734-7.30713,7.84766v.07129c0,4.31934,2.9873,7.91895,7.30713,7.91895,2.87939,0,4.64307-1.15137,6.623-2.95117l3.52734,3.56348A12.879,12.879,0,0,1,333.05983,46.25516Z"/>
              <path class="cls-3" d="M356.78395,46.18388a16.03128,16.03128,0,0,1-10.69043-4.03223l3.27539-3.92285a11.56317,11.56317,0,0,0,7.52295,3.05957c2.26807,0,3.63574-.90039,3.63574-2.376v-.07227c0-1.40332-.86377-2.123-5.0752-3.20312-5.07568-1.2959-8.35107-2.7002-8.35107-7.70312v-.07227c0-4.57129,3.67139-7.59473,8.81885-7.59473A14.58559,14.58559,0,0,1,365.27907,23.47l-2.87988,4.17578a11.82093,11.82093,0,0,0-6.55078-2.4834c-2.124,0-3.23975.97168-3.23975,2.19531V27.43c0,1.65527,1.08008,2.19531,5.43555,3.31152,5.11133,1.332,7.99072,3.168,7.99072,7.55859v.07227C366.03493,43.37626,362.2195,46.18388,356.78395,46.18388Z"/>
              <path class="cls-3" d="M386.15895,45.82352l-5.39941-8.0625h-4.35547v8.0625h-5.54346V20.62626h11.51855c5.93945,0,9.50293,3.13184,9.50293,8.31543V29.014a7.82411,7.82411,0,0,1-5.39941,7.81055l6.15527,8.999Zm.10791-16.59375c0-2.376-1.65576-3.59961-4.35547-3.59961h-5.50732v7.23535h5.61523c2.69971,0,4.24756-1.44043,4.24756-3.56348Z"/>
            </g>
          </g>
          <g>
            <path class="cls-3" d="M239.44557,25.39282c-6.341-2.57286-13.03585-4.77977-19.33862-7.64107a66.26966,66.26966,0,0,1-9.33782-5.07509c-3.08021-2.04738-5.78729-4.51992-9.00547-6.37714A44.30565,44.30565,0,0,0,172.63721.50317c-6.42371,1.01142-12.8071,2.10191-18.97174,4.36539-5.54744,2.03707-11.00613,5.177-16.913,6.061-7.3645,1.10236-22.33477,2.89458-22.75181,2.92286-4.7318.3211-9.48548.08-14.21478.492-4.60477.4011-11.6063,1.10283-14.2015,5.63494-4.61836,8.06545,5.0379,12.43975,11.32379,14.21431,7.54826,2.13082,15.37324,2.92333,23.15509,3.66772,6.09261.583,12.16271-.35844,18.27516-.09531,3.64819.15719,7.30638-.19813,10.87175.64564,3.61147.85517,7.15825,3.056,10.843,3.56522.73048.1011.41829,2.86677-.305,2.76677-.993-.137-1.98238-.28422-2.96161-.5022-4.67555-1.04111-9.1911-2.514-13.99978-2.86146-4.44008-.32094-8.74953-.33-13.38383-.52938-4.49867-.19375-8.98594-.12063-13.46539-.58126-8.42937-.86642-17.55718-2.88489-25.28982-6.59715-2.74239-1.31659-5.76729-3.74491-6.92043-6.7259-1.13752-2.94036,1.91316-8.91016,1.91316-8.91016l.00047-.00078s-20.22067-3.12537-24.21214-3.53287a111.03956,111.03956,0,0,1-23.144-5.54682,46.37374,46.37374,0,0,0-12.05021-2.869,43.1713,43.1713,0,0,0-12.81522.76486c-3.33193.698-5.801,1.00017-8.71484,2.90489C2.68891,11.07445.81591,12.8051.184,15.19218a5.43247,5.43247,0,0,0-.01516,2.74552c.71486,2.75145,3.03521,3.33709,5.187,3.83413,8.64828,1.99879,17.50874,4.95962,26.04327,7.45888,7.28872,2.13441,14.25822,5.866,21.13553,9.03766h0c7.5056,3.97788,41.45854,25.8217,53.22171,26.25234.29141.01047,17.645-.43063,28.35628-2.77349,7.64248-1.6719,40.306-2.86427,40.306-2.86427q.19453,0,.38829.018C188.485,60.18328,202.794,60.198,214.7517,67.85372c5.82151,3.72725,11.42536,7.88108,17.12374,11.8138a4.18831,4.18831,0,0,0,3.55709.56892,4.24286,4.24286,0,0,0,2.96427-3.78772l3.62381-46.88395A4.15479,4.15479,0,0,0,239.44557,25.39282Z"/>
            <path class="cls-3" d="M264.06662,21.48776l-12.60506-1.12783a6.31373,6.31373,0,0,0-6.85137,5.72588l-5.124,57.26194a6.3141,6.3141,0,0,0,5.72588,6.85153L257.817,91.32711a6.31379,6.31379,0,0,0,6.85153-5.72588l5.124-57.26194A6.3137,6.3137,0,0,0,264.06662,21.48776Zm-9.507,63.41439a6.01114,6.01114,0,1,1,4.7193-4.71915A6.01668,6.01668,0,0,1,254.55958,84.90215Z"/>
          </g>
        </g>
      </g>
    </g>
  </g>
</svg>
