<svg id="Layer_2" data-name="Layer 2" xmlns="http://www.w3.org/2000/svg" viewBox="0 0 443.58 341.9"><defs><style>.cls-1,.cls-3,.cls-4,.cls-5{fill:#fff;}.cls-1,.cls-2{opacity:0.5;}.cls-4{opacity:0.4;}.cls-5{opacity:0.41;font-size:44.72px;font-family:GothamHTF-Bold, Gotham HTF;font-weight:700;letter-spacing:-0.08em;}.cls-6{opacity:0.74;}.cls-7{opacity:0.46;}</style></defs><title>amplify</title><g id="amplify"><path class="cls-1" d="M199.18,144.43c4.57,6.83,9.75,14.52,17.42,14.52h0a13.53,13.53,0,0,0,5.45-1.19c8.14-3.56,13.28-13.9,21-23.52a16.29,16.29,0,0,1-.68-2.33c-3.57-2.38-15.77-10.42-21.68-12.84-7-2.86-11.66-5.27-15-9.13a13,13,0,0,1-2.92-9l0-.2.12-.16c.21-.28,21.09-27.78,24.23-37.9A32.4,32.4,0,0,1,230.83,55a75.67,75.67,0,0,0-41.26,23.87C177.7,92,168.21,98,159.68,98h0c-5.36,0-9.83-2.26-14.14-4.61-1.31-.72-2.67-1.37-4-2a8.78,8.78,0,0,0-3.85-.78c-10.91,0-27.42,15.81-28.11,16.48l1,1.16a28.51,28.51,0,0,1,16.27-5.32c7.32,0,14.33,3.08,20.83,9.15,7.19,6.71,11.64,13.85,15.22,19.58,3.92,6.28,6.75,10.82,10.93,10.82,2.55,0,5.41-1.74,9-5.48,2-2.05,3.76-3.07,5.5-3.07C192.11,133.89,195.54,139,199.18,144.43Z"/><g class="cls-2"><path class="cls-3" d="M268.27,103.91c-4.54-7.22-11-13.48-17.35-25.86-2.47-3.62-5-6.55-6.34-6.55h-.05a2.25,2.25,0,0,0-.9.43c-2.84,2.7-6.88,7.27-10.78,11.89-4,5-8.34,10.75-11.62,15.29l-.52-.39.32.39a51,51,0,0,1,7.15,9,54.61,54.61,0,0,0,3.81,5.2,29.39,29.39,0,0,0,6,4.67c2.22,1.33,6.58,3.51,9.44,5.35a17.87,17.87,0,0,1,3,1.86l1-1.25C257.3,116.28,262.93,108.95,268.27,103.91Z"/></g><path class="cls-4" d="M333.64,328.3A3.71,3.71,0,0,0,331,326.4c-4.09-.84-13.1-4.29-16.49-8.2-.62-.71-1.3-1.43-2-2.19-3.36-3.55-7.16-7.57-8.2-14.29-.94-6.08-.26-18.15.33-28.8.22-4,.43-7.68.54-10.89.43-11.72,4.26-24.92,4.3-25.05l0-.11c.6-5.05,1.07-9.73,1.53-14.25.69-6.75,1.33-13.12,2.35-20.7s4-33.19,1-52.62l.23.08c.06-.2.22-.53.39-.92.78-1.74,2.21-4.89.77-6.9l2.7-9.14.17.81.72-2.45c.34-1.15,8.24-28.16,6.05-36.65-.58-2.26-3.34-5.19-6.53-8.59A77.32,77.32,0,0,1,312.35,78L310.26,75c-3.76-5.3-8-11.3-11-14.76-.29-.34-.57-.66-.82-.95l-.19-.19c2.32-2.69,3.2-5.34,2.63-7.91-1-4.48-6.19-7.26-8.47-8.28,3.06-4,.85-9.24.51-10l-2.06-8L293.08,19c.9-1.49,7-11.89,4.9-16.57a3.75,3.75,0,0,0-3-2.19A22.15,22.15,0,0,0,291.45,0a32.19,32.19,0,0,0-11.62,2.38c-.38,0-1.27-.1-2.49-.1-4.49,0-15.43.94-20.13,9.64-4.83,8.94-3.62,14.41-2.85,16.39a14,14,0,0,0-2,5.49,12.29,12.29,0,0,0-.43,4.75,9.66,9.66,0,0,0-6.77,3.14,2.52,2.52,0,0,0-1.58,3.11,11.59,11.59,0,0,0-.4,3,16,16,0,0,0-1.93.28c-6.26,1.38-13,8.8-15.6,17.26-3,9.51-22.59,35.38-22.79,35.64l-.12.15,0,.19a12.25,12.25,0,0,0,2.75,8.47c3.11,3.63,7.51,5.9,14.07,8.59,5.55,2.27,19.68,11.6,23,13.84.81,4.24,5.17,11.3,6.24,13a2.58,2.58,0,0,0-.12,1.17c.24,2.5,3.14,7.34,4.42,8.23a1.84,1.84,0,0,0,1,.25c1.56,0,4-1,5.75-1.84-4.77,11.38-9.87,26.76-11,38.58-1.42,15.26-3.74,20.34-5.43,24-.36.79-.71,1.54-1,2.33-.47,1.2-.81,2.3-1.14,3.35-.86,2.75-1.6,5.13-4.33,7.93-1,1-2.29,2.12-3.71,3.34-4.44,3.8-10,8.53-10.3,13.46-.41,5.91-5.55,35.15-7.71,39.57-.93,1.9-2.07,4.79-3.27,7.84a86.44,86.44,0,0,1-4.48,10.24,6.59,6.59,0,0,1-2.59,2.63,6.32,6.32,0,0,0-2.61,2.69,8.65,8.65,0,0,0-1.16,3.72,5.65,5.65,0,0,1-1,2.89c-1.73,2.65-7,13.78-7.86,17.89-.21.66-1.58,5.19.07,7.32a2.82,2.82,0,0,0,2.35,1.07l.42,0c4.69-.44,19.33-1.32,19.48-1.33l.25,0v-.63a27.52,27.52,0,0,0-.52-7.69c-.85-3.46-.66-10.07-.66-14.44a14.93,14.93,0,0,1,.63-4.22,10.22,10.22,0,0,0,.37-4.26,7.64,7.64,0,0,0-.39-2c0-.07.06-.17.11-.32.12-.44.37-1.25.74-2.79,1.2-4.94,6.86-21.74,12.44-30.33a63.9,63.9,0,0,1,5.88-7.49c3.13-3.59,6.1-7,8-12.58a110.09,110.09,0,0,0,2.69-10.92c1.06-5,2.16-10.07,3.32-12.46a19.51,19.51,0,0,1,2.7-4.08,13.54,13.54,0,0,0,2.94-5.26c.22-.44,1.92-3.82,4.69-8.29,1.58-2.54,5.82-8.51,9.93-14.29,3.69-5.21,7.18-10.12,8.22-11.83,1.77-2.89,11.13-18.66,14.41-24.19a102.91,102.91,0,0,0,3.86,24c4.06,13.43,8.51,34.78,5.66,40.2-.72,1.37-1.74,3.11-2.93,5.13-3.89,6.63-8.72,14.89-8.38,19.14.24,3,1.57,7.69,2.75,11.82a65.4,65.4,0,0,1,2,8.11c.13,1.16.56,3.61,1.12,6.71,1.34,7.54,3.37,18.94,2.78,22.3-.45,2.55-.87,3.13-1.32,3.74a6.81,6.81,0,0,0-1.26,2.86c-.39,1.59-.66,1.87-.75,2-.41.42-.36.67-.12,1.87.19,1-.24,6-.62,10.51-.47,5.55-.92,10.79-.68,12.47l.08.56,40.74.45.16-.43C333.65,333.79,334.85,330.53,333.64,328.3Zm-60.82-201-3.05,6.46c-1.15,2.16-2.81,5.3-3.85,7.38l-15.18-14.39a1.33,1.33,0,0,0-.23-1.47,16.75,16.75,0,0,0-3.08-1.9c-2.86-1.84-7.22-4-9.44-5.35a29.44,29.44,0,0,1-6-4.67,54.79,54.79,0,0,1-3.81-5.2,51.08,51.08,0,0,0-7.15-9l-.32-.39.52.39c3.28-4.54,7.59-10.24,11.62-15.29,3.91-4.62,7.94-9.19,10.78-11.89a2.29,2.29,0,0,1,.9-.44h.05c2.28,0,8.17,8.61,11.11,14.66,1.73,3.58,6.86,9.19,7.4,10C267.85,103.1,278.47,116.47,272.83,127.26Zm19-27.77-11.72,1a3.94,3.94,0,0,1-3.93-3.93l-11-29.21a3.94,3.94,0,0,1,3.93-3.93l18.75-2a3.94,3.94,0,0,1,3.93,3.93l4,30.2A3.94,3.94,0,0,1,291.85,99.49Zm7.24,8.09c0-7.84,1.13-12.32,3.66-14.54.39-.34.83-.69,1.29-1.07l1.17-1c1.27.87,4.35,5.08,6.08,7.65l.14-.1c-.53,2.82-.25,6.72,0,9.89.11,1.43.2,2.65.2,3.55,0,3.4-.81,12.87-.93,14.31l-2.41,3.19c-1.85-4.29-3.62-7.71-5.05-10.49C300.73,114.21,299.09,111,299.09,107.58Z"/><text class="cls-5" transform="matrix(0.71, -0.18, 0.23, 0.97, 276.85, 94.38)">s</text><g class="cls-6"><g class="cls-7"><path class="cls-3" d="M146.66,108.31c17.11-6.89,37.55-5.7,39,0s-18.54,26.62-18.54,26.62-.48,1.19-1.9-1.66S145.87,108.63,146.66,108.31Z"/><path class="cls-3" d="M187.06,130.17c18.77-8.79,28.61-19.59,29.79-10.8s-9.6,32.19-9.6,32.19-1.9.95-4.75-2.38-9.27-12.6-9.27-12.6S189.91,132.08,187.06,130.17Z"/></g></g></g></svg>