<svg id="Layer_2" data-name="Layer 2" xmlns="http://www.w3.org/2000/svg" viewBox="0 0 443.58 341.9"><defs><style>.cls-1{fill:#fff;opacity:0.4;}</style></defs><title>create</title><path id="create" class="cls-1" d="M397.14,92.32c.25-3-6.55-.63-6.69-.58S367.16,97,362.79,97.63s-8.94,5.54-8.94,5.54l-.91.75a6.64,6.64,0,0,1-4.42,1.95v-1.48a.34.34,0,0,0-.4-.33l-3.62.68c-.2,0-10.59,4.37-10.59,4.37s-3.12,2-5,2h-1.73c-.17-1.85-.65-5.44-1.84-5.67a19.6,19.6,0,0,0-4.25-.22c-.55,0-1.09,0-1.64,0l-1.71,0c-1.64,0-3.34-.07-5,0a10.24,10.24,0,0,0-4,.81c-1.91.92-2.55,2.73-3.17,4.49l-.28.78c-.73,2-1.62,3.1-2.79,3.52l-.21.07a3,3,0,0,0-.57.23,2.25,2.25,0,0,0-1,1.73l-.09,1.28h-2.24l-14.41,3.51s-7-1.95-8-1.95h-7.08a6.22,6.22,0,0,0-1.06-2.14.34.34,0,0,0-.27-.14h-14a.34.34,0,0,0-.24.1l-2.74,2.74-31.53.09c.39-1.17,1.43-4.22,2-5.64a2.52,2.52,0,0,1,1.42-1.44c2.49-1.06,6.82.67,6.86.69a75.74,75.74,0,0,0,11,3.23c7.83,1.88,12.72-1.75,14.34-4.07l3.67.22,32.28.68c5,.11,5.42-.4,6.05-1.67l.05-.1a9.2,9.2,0,0,0,.6-3.74c0-.3,0-.58,0-.85,0-.47.06-.95.09-1.44a20.14,20.14,0,0,0-.2-6.31,3.37,3.37,0,0,0-1-1.84,3.79,3.79,0,0,0-2-.71,35.06,35.06,0,0,0-4.81-.17c-.87,0-1.77,0-2.63,0L283.12,97,279,96.87l-24.37-.72a19,19,0,0,0-5.23-5.4,11,11,0,0,0-6.57-1.53h0a6.15,6.15,0,0,0-1.26-2.34c-.08-.05-17.48-13.74-17.48-13.74a23.77,23.77,0,0,1-3.42-1.6,2.34,2.34,0,0,0-2.71.29c-.69.41-1.13.65-1.63.38a1.38,1.38,0,0,1-.79-1.39,4.67,4.67,0,0,0-.13-.84,3.81,3.81,0,0,0-2-2.08A9.25,9.25,0,0,0,209,67h-9a4.89,4.89,0,0,0-4.4,2.7,52.11,52.11,0,0,1-3.7,6.06c-1.57,1.93-1.48,4.31-.41,5.24a.52.52,0,0,1,.2.39,2,2,0,0,1-.54,1.13c-1.24-.28-8.23-1.77-21.9-2.69a279.2,279.2,0,0,0-28.69-.16c-2.62.09-4.88.16-6.56.16-3.93,0-9.19.43-10.64,1.56L109.51,94.27l-3.46,3.24H102.9a1.85,1.85,0,0,0-2,1.82H99.6V92.06a.34.34,0,0,0-.34-.34H95.74c-.19,0-21.36,5.45-21.36,5.45a.34.34,0,0,0-.34.34v9.77H71.59l-4.16-1.12h-.09l-7.25.11-6,.08c-.62,0-1.26,0-1.91,0a22.51,22.51,0,0,0-4.87.23,3.13,3.13,0,0,0-1.64.76,3.57,3.57,0,0,0-.75,2.59h0V110c0,6.85-.12,13.8-.21,20.53q-.05,3.86-.1,7.72c0,2.06-.09,4.16-.15,6.19-.12,4.08-.25,8.3-.08,12.42a3,3,0,0,0,1.1,2.4,3.71,3.71,0,0,0,1.85.5c4.3.35,8.68.59,12.91.83l5.39.31v1.27a.34.34,0,0,0,.34.34h7.5v1.36H70a.34.34,0,0,0-.34.34v8.29a.34.34,0,0,0,.34.34H88.13a.34.34,0,0,0,.34-.34s2.35,4.84,2.55,4.94a4.18,4.18,0,0,1,1,1,4.7,4.7,0,0,0,1.2,1.15,3.28,3.28,0,0,0,.71.33,3,3,0,0,0,.85.09H103l31.55,10.45v7.27h30v1.59s-6.13-1.59-18,5.91-54.06,32.24-54.06,32.24l-1.36-1.82L53,259l-4.54,4.54a5.72,5.72,0,0,0,.91,4.09,15.51,15.51,0,0,0,3.18,3.41l6.36-1.82,38.63-21.13-1.36-3.86,57.47-33.15s5.23-3.64,11.13-3.64c0,0,.45,4.32,2.5,5,1.59.53,5.93.11,8.65.5a33.26,33.26,0,0,0-1.16,5.52h.31a9.19,9.19,0,0,1-.27,2.4.77.77,0,0,1-.85.55,5,5,0,0,0-4,1.22.77.77,0,0,0-.24.49l-3.27,30.91a.77.77,0,0,1-.13.35H155.13a6,6,0,0,0-5.95,5.95l-3.38,13h96.93l-1.5-13a6,6,0,0,0-5.95-5.95h-13a.78.78,0,0,1-.08-.27l-1.75-19.59a.78.78,0,0,1,.58-.82l2.9-.75a.78.78,0,0,0,.56-.92l-.63-2.84a.78.78,0,0,0-.81-.61l-14.06.92a.78.78,0,0,1-.6-1.32c3.61-4.67,4.24-8,3.45-10.35a18.47,18.47,0,0,0-6.34-13.32v-6.6l4.54-.23v-5h13v-8.18l41.36-2.5v-5h-6.59v-5.91h70.89v-7.73s-1.6-3.3-1.49-4.54h1.73c1.92,0,5,2,5,2s10.39,3,10.59,3l3.62.68a.34.34,0,0,0,.4-.33V160a6.64,6.64,0,0,1,4.42,1.95,12.75,12.75,0,0,0,5.85,3L399,172.72a.34.34,0,0,0,.26,0C399.38,172.61,392.39,149.18,397.14,92.32Zm-248,86.77-5.57,5.57H132.76V180h9.4a4.45,4.45,0,0,0,3.17-.83,26.61,26.61,0,0,1,14.79-5.49,20.52,20.52,0,0,1,9.47,2,17.88,17.88,0,0,1,4.08,2.68c.11.09.21.2.32.32a5.38,5.38,0,0,0,.48.45Zm16.44-76.3c-.47-.32-3-2-3.81-2h-1.09l0-2a.34.34,0,0,0-.34-.33h0s-33.44-.28-35.63-.76c.23-1.11-.12-1.19,1-2.69A9.6,9.6,0,0,1,128.74,92a6.68,6.68,0,0,1,3.64-.77c62.48,0,69.54,5.07,70.09,5,.6.13,2,.61,2.07,1.49.13,1.28,1.29.32.24,1.53a1.07,1.07,0,0,1-.79.4c-2.57.11-7,0-7,0h-1.6a.34.34,0,0,0-.34.34v3.52a.34.34,0,0,0,0,.11.94.94,0,0,1-.09.7,1.68,1.68,0,0,1-1.14.68c-1.3.31-2,2.16-2.75,4a7.48,7.48,0,0,1-1.35,2.58c-3.91,2.95-7.91,1.19-11.66-1.15S165.65,102.84,165.56,102.79Zm58.38,53.8c2.52,3,5.1,7,3.68,9.49-1.25,2.19-3.34,3-5.88,3.26V159.21a.34.34,0,0,0-.34-.34h-2.74l-.09-2.27Zm24.48,8.18H234.78l-8.41,12.72v1.59H214.47v-.58l3.21-1.5a.34.34,0,0,0,.17-.18l.71-1.72h1.36a.34.34,0,0,0,.29-.16l1.48-2.39a.34.34,0,0,0,.05-.18V170.7c2.95-.3,5.51-1.23,7.07-3.95,1.72-3-.69-7.14-3.1-10.17h1.8l.38,1.34a.34.34,0,0,0,.33.25h1.93a.34.34,0,0,0,.27-.13l.81-1h3.86l.69,1a.34.34,0,0,0,.28.15h12.36Zm5.91-1.36v-6.24c3.53,0,12.29.08,13.12,0,1.05-.12,7.57-4.77,7.57-4.77a.34.34,0,0,0,.34-.34v-3.86l8.57-.45s20.59,9,21.32,11c.1.26.19.52.28.78a8.12,8.12,0,0,0,2.29,3.93Z"/></svg>