<?xml version="1.0" encoding="utf-8"?>
<!-- Generator: Adobe Illustrator 20.1.0, SVG Export Plug-In . SVG Version: 6.00 Build 0)  -->
<svg version="1.1" id="Layer_1" xmlns="http://www.w3.org/2000/svg" xmlns:xlink="http://www.w3.org/1999/xlink" x="0px" y="0px"
	 viewBox="0 0 443.6 341.9" style="enable-background:new 0 0 443.6 341.9;" xml:space="preserve">
<style type="text/css">
	.st0{opacity:0.4;}
	.st1{fill:#FFFFFF;}
</style>
<title>curate</title>
<g id="Icons_Stacked">
	<g id="curate">
		<g class="st0">
			<path class="st1" d="M293.3,19.5H152.1c-19,0-34.4,15.4-34.4,34.4c0,0,0,0,0,0V288c0,19,15.4,34.4,34.4,34.4c0,0,0,0,0,0h141.1
				c19,0,34.4-15.4,34.4-34.4V53.9C327.7,34.9,312.3,19.5,293.3,19.5z M182.7,38c0-4.5,3.7-8.2,8.2-8.2h63.7c4.5,0,8.2,3.7,8.2,8.2
				l0,0c0,4.5-3.7,8.2-8.2,8.2h-63.7C186.3,46.2,182.7,42.5,182.7,38z M222.7,310.4c-8.1,0-14.6-6.6-14.6-14.6
				c0-8.1,6.6-14.6,14.6-14.6c8.1,0,14.6,6.6,14.6,14.6C237.3,303.8,230.7,310.4,222.7,310.4L222.7,310.4z M310.9,269.9H134.4V64.2
				h176.5L310.9,269.9z"/>
			<path id="_Path_" class="st1" d="M206,155.6c4.6-21.6,32.5-30.5,36.2-31.6v12.8l27.5-22.2l-27.5-18.1v13.1
				C198.6,121.4,206,155.6,206,155.6z"/>
			<path id="_Path_2" class="st1" d="M252,159.5h-56.8V102h40.5v-5.8h-41.4c-2.7,0-4.9,2.2-4.9,4.9v59.3c0,2.7,2.2,4.9,4.9,4.9h58.6
				c2.7,0,4.9-2.2,4.9-4.9v0v-27.3l-5.8,4.7L252,159.5z"/>
		</g>
		<g class="st0">
			<path class="st1" d="M197.3,196.2h-14.7c-0.7,0-1.3-0.6-1.3-1.3c0-0.7,0.6-1.3,1.3-1.3h14.7c0.7,0,1.3,0.6,1.3,1.3
				C198.6,195.6,198,196.2,197.3,196.2L197.3,196.2z"/>
			<path class="st1" d="M262.7,196.2h-53.4c-0.7,0-1.3-0.6-1.3-1.3c0-0.7,0.6-1.3,1.3-1.3l0,0h53.4c0.7,0,1.3,0.6,1.3,1.3
				C264.1,195.6,263.5,196.2,262.7,196.2z"/>
			<path class="st1" d="M202.8,201.6c-3.7,0-6.7-3-6.7-6.7s3-6.7,6.7-6.7c3.7,0,6.7,3,6.7,6.7l0,0
				C209.5,198.6,206.5,201.6,202.8,201.6z M202.8,190.9c-2.2,0-4,1.8-4,4s1.8,4,4,4s4-1.8,4-4S205,190.9,202.8,190.9z"/>
			<path class="st1" d="M237.4,222.9h-54.7c-0.7,0-1.3-0.6-1.3-1.3c0-0.7,0.6-1.3,1.3-1.3h54.7c0.7,0,1.3,0.6,1.3,1.3
				C238.7,222.3,238.1,222.9,237.4,222.9L237.4,222.9z"/>
			<path class="st1" d="M262.7,222.9h-13.4c-0.7,0-1.3-0.6-1.3-1.3c0-0.7,0.6-1.3,1.3-1.3l0,0h13.4c0.7,0,1.3,0.6,1.3,1.3
				C264.1,222.3,263.5,222.9,262.7,222.9z"/>
			<path class="st1" d="M242.9,228.3c-3.7,0-6.7-3-6.7-6.7s3-6.7,6.7-6.7c3.7,0,6.7,3,6.7,6.7l0,0
				C249.5,225.3,246.6,228.3,242.9,228.3z M242.9,217.6c-2.2,0-4,1.8-4,4s1.8,4,4,4s4-1.8,4-4C246.9,219.4,245.1,217.6,242.9,217.6
				L242.9,217.6z"/>
			<path class="st1" d="M210.7,249.6h-28c-0.7,0-1.3-0.6-1.3-1.3c0-0.7,0.6-1.3,1.3-1.3l0,0h28c0.7,0,1.3,0.6,1.3,1.3
				C212,249,211.4,249.6,210.7,249.6z"/>
			<path class="st1" d="M262.7,249.6h-40c-0.7,0-1.3-0.6-1.3-1.3c0-0.7,0.6-1.3,1.3-1.3h40c0.7,0,1.3,0.6,1.3,1.3
				C264.1,249,263.5,249.6,262.7,249.6z"/>
			<path class="st1" d="M216.2,255c-3.7,0-6.7-3-6.7-6.7s3-6.7,6.7-6.7c3.7,0,6.7,3,6.7,6.7l0,0C222.8,252,219.9,255,216.2,255z
				 M216.2,244.3c-2.2,0-4,1.8-4,4s1.8,4,4,4s4-1.8,4-4C220.2,246.1,218.4,244.3,216.2,244.3C216.2,244.3,216.2,244.3,216.2,244.3
				L216.2,244.3z"/>
		</g>
	</g>
</g>
</svg>
