<svg id="Layer_2" data-name="Layer 2" xmlns="http://www.w3.org/2000/svg" viewBox="0 0 443.58 341.9"><defs><style>.cls-1,.cls-2{opacity:0.4;}.cls-2,.cls-3,.cls-4{fill:#fff;}.cls-4{opacity:0.85;}</style></defs><title>distribute</title><g id="distribute" class="cls-1"><path class="cls-2" d="M174.15,108.17,200,138.23l-5,4.11-25.61-30-7,6-2.54-20.24,21.18,4.11-6.92,6Zm-27.84,46.49,39.19,5-.95,6.34L145.33,161l-1.25,9.17-15.18-13.27,18.34-11.07-.94,8.86Zm9.17,51.53,33.19-21.51,3.47,5.38L159,211.55l5,7.91-20.54-.31,7-20.56,5.07,7.6ZM195,239.08l-8.84-2.52,7.59,20.22,16.12-13L201,241.27l12-37.92-6.33-1.9L195,239.08Zm49,1.24L230.41,203l6-1.9,13.29,37,8.87-3.14-4.77,19.9-18.64-11.36,8.85-3.18Zm41.73-32.54-4.43,7.9,21.18-3.46-9.16-18.06-4.42,7.93-34.77-19-2.87,5.38,34.48,19.28Zm10.09-54.05-38.55,9.14-1.57-6.3,38.55-8.85-2.2-9.18,19.26,7.27-13.58,16.76-1.92-8.83Zm-31.6-48.4,7.91,4.75-2.52-21.5-18.68,8.53,7.92,4.75L238,135.38l5.38,3.46,20.85-33.51ZM224.4,92v39.54h-6.33V92h-9.16L220.28,75,233.54,92Z"/><path class="cls-3" d="M221.56,25.67A18.49,18.49,0,1,1,203.22,44a18.37,18.37,0,0,1,18.34-18.34Z"/><path class="cls-3" d="M127,60.13A18.46,18.46,0,0,1,152.95,62,18.81,18.81,0,0,1,151,88.27,18.19,18.19,0,0,1,125.12,86,18.48,18.48,0,0,1,127,60.13Z"/><path class="cls-3" d="M77.71,147.71a18.55,18.55,0,0,1,21.17-15.17,18.25,18.25,0,0,1,15.17,20.86,18.39,18.39,0,1,1-36.34-5.69Z"/><path class="cls-3" d="M97.29,246.35a18.19,18.19,0,0,1,6-25.3,18.39,18.39,0,0,1,19.3,31.31,18.25,18.25,0,0,1-25.32-6Z"/><path class="cls-3" d="M176.32,308.62a18.11,18.11,0,0,1-12-23.08,18.45,18.45,0,1,1,35.1,11.36,18.42,18.42,0,0,1-23.1,11.71Z"/><path class="cls-3" d="M276.54,304.84a18.75,18.75,0,0,1-24-9.81,18.56,18.56,0,1,1,24,9.81Z"/><path class="cls-3" d="M350.54,236.22a18.53,18.53,0,0,1-33.21-16.43,18.53,18.53,0,0,1,33.21,16.43Z"/><path class="cls-3" d="M361.91,136.33a18.46,18.46,0,0,1-13.58,22.44,18.68,18.68,0,0,1-22.15-13.59A18.1,18.1,0,0,1,339.46,123a18.38,18.38,0,0,1,22.45,13.29Z"/><path class="cls-3" d="M305.65,52.85a18.94,18.94,0,0,1,4.41,25.93,18.57,18.57,0,0,1-25.91,4.1A18.26,18.26,0,0,1,280,57.29,18.6,18.6,0,0,1,305.65,52.85Z"/><path class="cls-4" d="M221.56,145.17a26.56,26.56,0,1,1-2.94,53,26.56,26.56,0,0,1,2.94-53Z"/></g></svg>