<svg id="Layer_2" data-name="Layer 2" xmlns="http://www.w3.org/2000/svg" viewBox="0 0 443.58 341.9"><defs><style>.cls-1{fill:#fff;opacity:0.4;}</style></defs><title>engage</title><g id="engage"><path class="cls-1" d="M309.89,229.56c2.42,0,4.84.35,7.26.35a45.07,45.07,0,0,0-3.8-9.33c-4.84-7.95-6.91-10.37-16.24-11.41-8.29-.69-42.86-18-59.45-25.23V167c26.27-2.07,50.81-7.26,56-11.75-23.5-21.43-15.21-58.76-20.39-93s-43.2-46-58.76-47S186.16,21.15,183,26c-18-7.6-34.91,24.88-35.25,42.51s-5.88,74.65-22.47,86.41c2.76,2.07,7.6,4.15,13.82,5.88,5.88-3.8,9.68-11.75,10.71-18.32-1.38,11.06-3.11,15.9-4.84,19.7l6.22,1c2.07-2.42,3.8-4.84,4.15-7.26-.69,3.11-1,5.53-1.73,7.6,8.29,1.38,18,2.42,27.65,3.11v16.94c-16.94,7.6-51.5,24.88-59.45,25.58-9.33.69-11.75,3.46-16.24,11.41-4.84,7.95-15.9,47.35-17.63,72.58,13.82,5.53,57,26.27,121.31,26.27a290.35,290.35,0,0,0,48.39-4.15,58.73,58.73,0,0,1,52.19-85.71Z"/><path class="cls-1" d="M355.41,268.94h0c-.89-10-10.24-17.87-21.65-17.87-9.16,0-17,5.07-20.17,12.25-3.2-7.17-11-12.25-20.17-12.25-12,0-21.72,8.7-21.72,19.44,0,.17,0,.34,0,.5-.29,12.49,11.68,24,24.89,35.53,10.84,9.45,15.3,16.81,16.75,19.62l.29.57.29-.58c1.45-2.81,5.92-10.17,16.75-19.62C344.61,294.39,357.17,282.24,355.41,268.94Zm-28.72,22.22H316v9.65a2.5,2.5,0,0,1-5,0v-9.65H300.11c-1.33,0-2.49-.67-2.49-2s1.16-2,2.49-2H311V274.24a2.5,2.5,0,0,1,5,0v12.92h10.69c1.33,0,2.49.67,2.49,2S328,291.16,326.68,291.16Z"/></g></svg>