<svg id="Layer_2" data-name="Layer 2" xmlns="http://www.w3.org/2000/svg" viewBox="0 0 443.58 341.9"><defs><style>.cls-1{fill:#fff;opacity:0.4;}</style></defs><title>gamify</title><path id="gamify" class="cls-1" d="M250.49,199.09c83-11.68,111-89.16,111-122.48,0-8.8-7.16-16.45-16-16.45H310.88c.11-3,.19-6.88.19-10.65a8.38,8.38,0,0,0-8.6-8.35H141.12a8.81,8.81,0,0,0-8.6,8.84c0,3.77.07,7.5.19,11l-34.62.06a16,16,0,0,0-16,16c0,33.33,28,110.34,111,122l2.91.42a54.11,54.11,0,0,1,3.73,21c0,28.94-19.13,39.14-36,48.13-11.34,6-22.05,11.4-22.26,22.9a8.52,8.52,0,0,0,8.8,8.61h143a8.51,8.51,0,0,0,8.79-8.61c-.21-11.49-10.92-17-22.26-23.07-16.88-9-36-19.11-36-48a54,54,0,0,1,3.73-21ZM308,92.16H326.7v.45c-4.06,14.41-15.3,43-42.62,60.49C294.17,139.32,303.36,121.16,308,92.16Zm-41.44,81.91,2.28-2.41,9.79-4.68c42.37-20.34,55.16-64.41,58.08-77.42.51-2.29-.86-5.41-3.58-5.41H309.18c.55-5,1-10,1.29-15h35a7.48,7.48,0,0,1,7.14,7.5c0,25.9-23.72,99.91-99.63,112.87C256.7,184.24,261.32,179.56,266.52,174.07ZM135.63,92.16c4.61,29,13.8,47.39,23.89,61.17-27.33-17.53-38.58-46.53-42.64-60.94v-.23ZM90.95,77.07A7.13,7.13,0,0,1,98.08,70l35,0c.31,5,.75,9.24,1.29,14.24H111.21a4.47,4.47,0,0,0-4.3,5.44c2.91,13,15.73,57.06,58.09,77.39l9.79,4.69,2.27,2.4c5.2,5.48,9.82,10.37,13.52,15.66C114.68,176.78,90.93,103,90.95,77.07Zm142.56,38,5,16.55-14.21-9.89a4.4,4.4,0,0,0-5,0l-14.21,9.89,5-16.55a4.4,4.4,0,0,0-1.55-4.78L194.71,99.8l21.41-3.32,5.67-16.35,5.68,16.36a4.4,4.4,0,0,0,4.07,3l17.33.35-13.81,10.49A4.42,4.42,0,0,0,233.5,115.09Z"/></svg>