<?xml version="1.0" encoding="utf-8"?>
<!-- Generator: Adobe Illustrator 20.1.0, SVG Export Plug-In . SVG Version: 6.00 Build 0)  -->
<svg version="1.1" id="Layer_1" xmlns="http://www.w3.org/2000/svg" xmlns:xlink="http://www.w3.org/1999/xlink" x="0px" y="0px"
	 viewBox="0 0 443.6 341.9" style="enable-background:new 0 0 443.6 341.9;" xml:space="preserve">
<style type="text/css">
	.st0{display:none;}
	.st1{display:inline;stroke:#000000;stroke-miterlimit:10;}
	.st2{opacity:0.6;enable-background:new    ;}
	.st3{fill:#FFFFFF;}
	.st4{enable-background:new    ;}
	.st5{opacity:0.6;}
	.st6{opacity:0.4;fill:#FFFFFF;enable-background:new    ;}
	.st7{opacity:0.4;fill:none;stroke:#FFFFFF;stroke-width:7.88;stroke-miterlimit:10;enable-background:new    ;}
	.st8{opacity:0.4;enable-background:new    ;}
	.st9{opacity:0.5;fill:#FFFFFF;enable-background:new    ;}
	.st10{opacity:0.8;fill:none;stroke:#FFFFFF;stroke-width:7.88;stroke-miterlimit:10;enable-background:new    ;}
	.st11{opacity:0.5;}
</style>
<g id="Layer_3" class="st0">
	<rect x="-96.3" y="-53.3" class="st1" width="642.7" height="494.7"/>
</g>
<g id="Layer_2">
	<title>results</title>
	<g id="results">
		<g class="st2">
			<path class="st3" d="M200,163.8c1.8,0,3.1-0.8,4-1.8l0.8,0.7c-1.2,1.3-2.6,2.2-4.8,2.2c-3.1,0-5.7-2.5-5.7-6.1v0
				c0-3.4,2.4-6.1,5.6-6.1c3.3,0,5.4,2.7,5.4,6.1v0c0,0.2,0,0.2,0,0.4h-9.7C195.7,162.1,197.7,163.8,200,163.8z M204,158.1
				c-0.2-2.4-1.5-4.5-4.2-4.5c-2.3,0-4.1,2-4.3,4.5H204z"/>
			<path class="st3" d="M217.4,164.5v-7c0-2.4-1.4-4-3.7-4c-2.3,0-4.1,1.7-4.1,4.2v6.8h-1.1v-11.7h1.1v2.2c0.8-1.4,2.1-2.5,4.2-2.5
				c3,0,4.7,2,4.7,4.8v7.2H217.4z"/>
			<path class="st3" d="M227.7,168.3c-2,0-3.8-0.6-5.4-1.8l0.7-0.9c1.4,1.1,3,1.7,4.7,1.7c2.7,0,4.6-1.5,4.6-4.5V161
				c-1,1.4-2.6,2.7-4.9,2.7c-2.8,0-5.6-2.2-5.6-5.5v0c0-3.4,2.8-5.6,5.6-5.6c2.3,0,3.9,1.2,4.9,2.6v-2.3h1.1v9.9
				C233.4,166.3,231,168.3,227.7,168.3z M232.4,158.1c0-2.7-2.4-4.5-4.8-4.5c-2.5,0-4.5,1.7-4.5,4.4v0c0,2.6,2.1,4.5,4.5,4.5
				C229.9,162.6,232.4,160.8,232.4,158.1L232.4,158.1z"/>
			<path class="st3" d="M245.7,164.5v-2c-0.8,1.1-2.2,2.2-4.5,2.2c-2.2,0-4.5-1.2-4.5-3.7v0c0-2.4,2.1-3.8,5.1-3.8
				c1.6,0,2.8,0.2,3.9,0.5v-0.5c0-2.4-1.4-3.6-3.9-3.6c-1.4,0-2.6,0.4-3.7,0.9l-0.4-1c1.3-0.6,2.5-1,4.2-1c3,0,4.9,1.6,4.9,4.6v7.3
				H245.7z M245.7,158.8c-1-0.3-2.3-0.5-4-0.5c-2.5,0-3.9,1.1-3.9,2.7v0c0,1.7,1.6,2.7,3.4,2.7c2.4,0,4.4-1.5,4.4-3.6V158.8z"/>
			<path class="st3" d="M256,168.3c-2,0-3.8-0.6-5.4-1.8l0.7-0.9c1.4,1.1,3,1.7,4.7,1.7c2.7,0,4.6-1.5,4.6-4.5V161
				c-1,1.4-2.6,2.7-4.9,2.7c-2.8,0-5.6-2.2-5.6-5.5v0c0-3.4,2.8-5.6,5.6-5.6c2.3,0,3.9,1.2,4.9,2.6v-2.3h1.1v9.9
				C261.7,166.3,259.3,168.3,256,168.3z M260.7,158.1c0-2.7-2.4-4.5-4.8-4.5c-2.5,0-4.5,1.7-4.5,4.4v0c0,2.6,2.1,4.5,4.5,4.5
				C258.3,162.6,260.7,160.8,260.7,158.1L260.7,158.1z"/>
			<path class="st3" d="M271,163.8c1.8,0,3.1-0.8,4-1.8l0.8,0.7c-1.2,1.3-2.6,2.2-4.8,2.2c-3.1,0-5.7-2.5-5.7-6.1v0
				c0-3.4,2.4-6.1,5.6-6.1c3.3,0,5.4,2.7,5.4,6.1v0c0,0.2,0,0.2,0,0.4h-9.7C266.6,162.1,268.7,163.8,271,163.8z M274.9,158.1
				c-0.2-2.4-1.5-4.5-4.2-4.5c-2.3,0-4.1,2-4.3,4.5H274.9z"/>
			<path class="st3" d="M296,164.5v-7c0-2.5-1.3-4-3.5-4c-2,0-3.7,1.5-3.7,4.1v6.8h-1.1v-7c0-2.4-1.3-3.9-3.4-3.9
				c-2.1,0-3.7,1.8-3.7,4.2v6.7h-1.1v-11.7h1.1v2.1c0.8-1.2,1.8-2.4,3.9-2.4c2,0,3.3,1.2,3.9,2.5c0.8-1.3,2-2.5,4.2-2.5
				c2.8,0,4.5,2,4.5,4.9v7.1H296z"/>
			<path class="st3" d="M306.2,163.8c1.8,0,3.1-0.8,4-1.8l0.8,0.7c-1.2,1.3-2.6,2.2-4.8,2.2c-3.1,0-5.7-2.5-5.7-6.1v0
				c0-3.4,2.4-6.1,5.6-6.1c3.3,0,5.4,2.7,5.4,6.1v0c0,0.2,0,0.2,0,0.4h-9.7C301.8,162.1,303.9,163.8,306.2,163.8z M310.1,158.1
				c-0.2-2.4-1.5-4.5-4.2-4.5c-2.3,0-4.1,2-4.3,4.5H310.1z"/>
			<path class="st3" d="M323.5,164.5v-7c0-2.4-1.4-4-3.7-4c-2.3,0-4.1,1.7-4.1,4.2v6.8h-1.1v-11.7h1.1v2.2c0.8-1.4,2.1-2.5,4.2-2.5
				c3,0,4.7,2,4.7,4.8v7.2H323.5z"/>
			<path class="st3" d="M332.6,164.7c-1.8,0-3.3-1-3.3-3.2v-7.7h-1.7v-1h1.7v-3.7h1.1v3.7h4.1v1h-4.1v7.6c0,1.7,1,2.3,2.3,2.3
				c0.6,0,1.1-0.1,1.7-0.4v1.1C333.9,164.6,333.3,164.7,332.6,164.7z"/>
		</g>
		<g class="st4">
			<path class="st3" d="M338.5,150.5v5.2h-0.4v-5.2h-1.9v-0.4h4.3v0.4H338.5z"/>
			<path class="st3" d="M346.5,155.7v-4.8l-2.2,3.2h0l-2.2-3.2v4.8h-0.4v-5.6h0.4l2.2,3.3l2.2-3.3h0.4v5.6H346.5z"/>
		</g>
		<g class="st5">
			<rect x="95.7" y="150.9" class="st3" width="3.1" height="13.6"/>
			<path class="st3" d="M114.1,150.8c-1-0.1-1.9,0.5-2.3,1.4l-3.8,8.6l-3.8-8.6c-0.4-0.9-1.3-1.4-2.3-1.4c-1.1,0-2.3,0.5-2.3,1.9
				v11.8h3.1V156l3.1,6.9c0.5,1.3,1.9,2,3.1,1.5c0.7-0.2,1.3-0.8,1.5-1.5l3.1-6.9v8.5h3.1v-11.8
				C116.4,151.3,115.2,150.8,114.1,150.8z"/>
			<path class="st3" d="M131.7,150.8c-1-0.1-1.9,0.5-2.3,1.4l-3.8,8.6l-3.8-8.6c-0.4-0.9-1.3-1.4-2.3-1.4c-1.1,0-2.3,0.5-2.3,1.9
				v11.8h3.1V156l3.1,6.9c0.5,1.3,1.9,2,3.1,1.5c0.7-0.2,1.3-0.8,1.5-1.5l3.1-6.9v8.5h3v-11.8C134,151.3,132.9,150.8,131.7,150.8z"
				/>
			<rect x="134.7" y="150.9" class="st3" width="3.1" height="13.6"/>
			<path class="st3" d="M149.2,160.5l-6-8.5c-0.5-0.8-1.4-1.2-2.3-1.2c-1.2,0-2.4,0.5-2.4,2v11.7h3.1v-9.7l6,8.5
				c0.5,0.8,1.4,1.2,2.3,1.2c1.2,0,2.4-0.5,2.4-2v-11.7h-3.1V160.5z"/>
			<path class="st3" d="M154.1,151.2c-0.8,0.3-1.3,1.1-1.3,2v9c0,0.9,0.5,1.7,1.3,2l0,0c0.6,0.3,1.2,0.4,1.8,0.4h7.5V162H156v-3h6.5
				v-2.6H156v-2.8h7.6V151h-7.5C155.4,150.8,154.8,150.9,154.1,151.2z"/>
			<path class="st3" d="M175,160.5l-6-8.5c-0.5-0.8-1.4-1.2-2.3-1.2c-1.2,0-2.4,0.5-2.4,2v11.7h3.1v-9.7l6,8.5
				c0.5,0.8,1.4,1.2,2.3,1.2c1.2,0,2.4-0.5,2.4-2v-11.7H175V160.5z"/>
			<polygon class="st3" points="178.7,150.9 178.7,153.5 183.6,153.5 183.6,164.5 186.7,164.5 186.7,153.5 191.6,153.5 191.6,150.9 
							"/>
		</g>
		<rect x="50.8" y="236.9" class="st6" width="25.6" height="39.5"/>
		<rect x="15" y="237.3" class="st6" width="25.6" height="39.5"/>
		<rect x="193.9" y="237.3" class="st6" width="25.6" height="39.5"/>
		<rect x="301.2" y="243.2" class="st6" width="25.6" height="33.6"/>
		<rect x="86.6" y="249.4" class="st6" width="25.6" height="27.4"/>
		<rect x="408.6" y="254.9" class="st6" width="25.6" height="21.9"/>
		<rect x="229.7" y="256.7" class="st6" width="25.6" height="20.1"/>
		<rect x="158.1" y="254.9" class="st6" width="25.6" height="21.9"/>
		<rect x="122.3" y="272.2" class="st6" width="25.6" height="4.6"/>
		<rect x="265.4" y="263.1" class="st6" width="25.6" height="13.7"/>
		<rect x="337" y="265.8" class="st6" width="25.6" height="11"/>
		<rect x="372.8" y="266.7" class="st6" width="25.6" height="10.1"/>
		<path class="st7" d="M181.3,104.3C181.2,82.7,198.7,65,220.4,65c17.3-0.1,32.5,11.2,37.6,27.7"/>
		<g class="st8">
			<path class="st3" d="M217.1,102.9c-1.6,0-2.7-0.5-3.6-1.3l1.3-1.8c0.8,0.6,1.5,0.9,2.4,0.9c1.3,0,2.1-1,2.2-2.5
				c-0.5,0.5-1.3,0.7-2.2,0.7c-2.4,0-3.9-1.3-3.9-3.5c0-2.2,1.7-3.8,4.1-3.8c1.5,0,2.3,0.4,3.1,1.2c0.8,0.8,1.3,2,1.3,4.1
				C221.8,100.5,220.2,102.9,217.1,102.9z M217.5,93.7c-1.2,0-1.8,0.7-1.8,1.7s0.7,1.6,1.9,1.6s1.9-0.7,1.9-1.6
				C219.4,94.4,218.7,93.7,217.5,93.7z"/>
			<path class="st3" d="M226.1,91.8h1.6v11h-2.4v-8.5l-1.9,0.5l-0.5-2L226.1,91.8z"/>
		</g>
		<g class="st8">
			<path class="st3" d="M191.7,121.7h1.4l-2.4,6h-1.2l-2.4-6h1.5l1.6,4.4L191.7,121.7z"/>
		</g>
		<g class="st8">
			<path class="st3" d="M196.7,126.6c0.7,0,1.1-0.2,1.6-0.7l0.8,0.7c-0.6,0.7-1.3,1.1-2.4,1.1c-1.7,0-3-1.2-3-3.1
				c0-1.7,1.2-3.1,2.9-3.1c1.9,0,2.8,1.5,2.8,3.2c0,0.1,0,0.2,0,0.4H195C195.2,126.1,195.8,126.6,196.7,126.6z M198,124.2
				c-0.1-0.9-0.6-1.6-1.5-1.6c-0.8,0-1.4,0.6-1.5,1.6H198z"/>
			<path class="st3" d="M202.1,127.6h-1.4v-5.9h1.4v1.3c0.4-0.9,1.1-1.5,2.1-1.4v1.4h-0.1c-1.2,0-2,0.8-2,2.3V127.6z"/>
			<path class="st3" d="M208.6,127.8c-0.5,1.2-1,1.7-2,1.7c-0.6,0-1-0.1-1.4-0.4l0.5-1c0.2,0.1,0.5,0.2,0.8,0.2
				c0.4,0,0.6-0.2,0.8-0.7l-2.5-5.9h1.4l1.7,4.4l1.5-4.4h1.4L208.6,127.8z"/>
		</g>
		<g class="st8">
			<path class="st3" d="M217.5,127.7c-0.8,0-1.8-0.3-2.5-0.9l0.6-0.9c0.6,0.5,1.3,0.7,1.9,0.7c0.6,0,0.9-0.2,0.9-0.6v0
				c0-0.5-0.6-0.6-1.3-0.8c-0.9-0.2-1.9-0.6-1.9-1.7v0c0-1.1,0.9-1.8,2.1-1.8c0.7,0,1.5,0.3,2.2,0.7l-0.5,1
				c-0.6-0.3-1.2-0.6-1.7-0.6c-0.5,0-0.8,0.2-0.8,0.6v0c0,0.4,0.6,0.6,1.3,0.8c0.9,0.3,1.8,0.7,1.8,1.7v0
				C219.7,127.1,218.7,127.7,217.5,127.7z"/>
		</g>
		<g class="st8">
			<path class="st3" d="M222.6,125.8c0,0.5,0.3,0.7,0.7,0.7c0.3,0,0.6-0.1,0.8-0.2v1.1c-0.3,0.2-0.7,0.3-1.2,0.3
				c-1,0-1.7-0.4-1.7-1.7v-3.1h-0.8v-1.2h0.8v-1.6h1.4v1.6h1.6v1.2h-1.6V125.8z"/>
		</g>
		<g class="st8">
			<path class="st3" d="M226.9,127.6h-1.4v-5.9h1.4v1.3c0.4-0.9,1.1-1.5,2.1-1.4v1.4h-0.1c-1.2,0-2,0.8-2,2.3V127.6z"/>
		</g>
		<g class="st8">
			<path class="st3" d="M232.8,127.7c-1.8,0-3.1-1.4-3.1-3.1c0-1.7,1.3-3.1,3.2-3.1c1.8,0,3.2,1.4,3.2,3.1
				C236,126.3,234.6,127.7,232.8,127.7z M232.8,122.8c-1.1,0-1.8,0.9-1.8,1.9c0,1.1,0.8,1.9,1.8,1.9c1.1,0,1.8-0.9,1.8-1.9
				C234.6,123.6,233.8,122.8,232.8,122.8z"/>
			<path class="st3" d="M238.7,127.6h-1.4v-5.9h1.4v0.9c0.4-0.6,0.9-1,1.9-1c1.3,0,2.1,0.9,2.1,2.3v3.8h-1.4v-3.4
				c0-0.9-0.5-1.4-1.3-1.4c-0.8,0-1.3,0.5-1.3,1.5V127.6z"/>
			<path class="st3" d="M246.9,129.4c-1,0-1.9-0.2-2.6-0.7l0.5-1c0.6,0.4,1.3,0.6,2.1,0.6c1.2,0,1.9-0.6,1.9-1.8v-0.5
				c-0.5,0.6-1.1,1.1-2.1,1.1c-1.4,0-2.7-1-2.7-2.8c0-1.8,1.3-2.8,2.7-2.8c1,0,1.6,0.5,2.1,1v-0.9h1.4v4.7
				C250.1,128.5,249,129.4,246.9,129.4z M247,122.7c-0.9,0-1.7,0.7-1.7,1.6s0.8,1.6,1.7,1.6c0.9,0,1.7-0.7,1.7-1.6
				C248.8,123.4,248,122.7,247,122.7z"/>
		</g>
		<g class="st8">
			<path class="st3" d="M180.6,115c-1.9,0-3.1-1.7-3.1-3.7c0-2.1,1.3-3.8,3.2-3.8c1.9,0,3.1,1.7,3.1,3.7
				C183.7,113.3,182.5,115,180.6,115z M180.6,108.7c-1.1,0-1.8,1.1-1.8,2.6c0,1.4,0.7,2.6,1.9,2.6s1.8-1.1,1.8-2.6
				C182.4,109.9,181.7,108.7,180.6,108.7z"/>
		</g>
		<g class="st8">
			<path class="st3" d="M254.5,107.6h0.9v7.3h-1.3v-6l-1.3,0.4l-0.3-1L254.5,107.6z"/>
			<path class="st3" d="M260.1,115c-1.9,0-3.1-1.7-3.1-3.7c0-2.1,1.3-3.8,3.2-3.8c1.9,0,3.1,1.7,3.1,3.7
				C263.3,113.3,262,115,260.1,115z M260.1,108.7c-1.1,0-1.8,1.1-1.8,2.6c0,1.4,0.7,2.6,1.9,2.6c1.1,0,1.8-1.1,1.8-2.6
				C262,109.9,261.3,108.7,260.1,108.7z"/>
			<path class="st3" d="M267.6,115c-1.9,0-3.1-1.7-3.1-3.7c0-2.1,1.3-3.8,3.2-3.8c1.9,0,3.1,1.7,3.1,3.7
				C270.8,113.3,269.5,115,267.6,115z M267.6,108.7c-1.1,0-1.8,1.1-1.8,2.6c0,1.4,0.7,2.6,1.9,2.6c1.1,0,1.8-1.1,1.8-2.6
				C269.5,109.9,268.7,108.7,267.6,108.7z"/>
		</g>
		<path class="st9" d="M390.6,193.4c0-2.5-2.1-4.6-4.6-4.6c-3,0-6,0-9,0c-2.5,0-4.5,2-4.5,4.5l0,0c0,3.1,0,6.2,0,9.3
			c0,2.4,2,4.4,4.4,4.5c1.5,0,3.1,0,4.6,0l0,0c1.6,0,3.1,0,4.7,0c2.5,0,4.5-2,4.5-4.5v-0.1C390.6,199.4,390.6,196.4,390.6,193.4z
			 M374.1,194.4c0-0.6,0-1.1,0.1-1.7c0.4-1.3,1.6-2.2,2.9-2.1c1.4,0,2.9,0,4.3,0h4.2c1.8,0,3.2,1.4,3.2,3.2c0,1.2,0,1.2-1.2,1.2H386
			c-1,0.1-2-0.1-2.9-0.5c-1.2-0.5-2.5-0.4-3.6,0.2c-0.3,0.2-0.6,0.3-1,0.3c-1-0.2-2.1-0.2-3.1-0.1C374.4,195,374.1,195,374.1,194.4
			L374.1,194.4z M383.4,198.5c0,1-0.8,1.7-1.8,1.7s-1.7-0.8-1.8-1.8c0-1,0.8-1.8,1.8-1.8C382.6,196.7,383.4,197.5,383.4,198.5
			L383.4,198.5z M388.8,202.8c-0.1,1.5-1.4,2.6-2.8,2.5c-3,0.1-5.9,0.1-8.9,0c-1.6,0-3-1.4-3-3c0-1.7,0-3.4,0-5.1
			c0-0.5,0.1-0.7,0.6-0.6c0.9,0,1.9,0,2.9,0c-0.7,2.3-0.3,4.2,1.8,5.6c1.3,0.8,2.9,0.8,4.2,0.1c2-1.1,2.5-2.8,2-5.7
			c0.9,0,1.9,0,2.8,0c0.3,0,0.5,0.2,0.5,0.4l0,0C388.8,199,388.9,200.9,388.8,202.8L388.8,202.8z"/>
		<g class="st8">
			<path class="st3" d="M52.8,220h1.4l-3.2,7.7h-1.2l-3.2-7.7h1.5l2.3,5.9L52.8,220z"/>
			<path class="st3" d="M56.9,220v7.6h-1.3V220H56.9z"/>
			<path class="st3" d="M64.6,221.2h-4.3v2h3.8v1.2h-3.8v2h4.4v1.2H59V220h5.7V221.2z"/>
			<path class="st3" d="M70.8,220H72l1.9,5.7l1.8-5.7h1.4l-2.7,7.7h-1.2l-1.9-5.5l-1.9,5.5h-1.2l-2.7-7.7h1.4l1.8,5.7L70.8,220z"/>
			<path class="st3" d="M81.2,223.2c1.6,0.4,2.5,1,2.5,2.2c0,1.4-1.1,2.3-2.7,2.3c-1.2,0-2.3-0.4-3.2-1.2l0.8-1c0.7,0.6,1.5,1,2.4,1
				c0.8,0,1.4-0.4,1.4-1c0-0.6-0.3-0.9-1.7-1.2c-1.6-0.4-2.5-0.9-2.5-2.3c0-1.3,1.1-2.2,2.6-2.2c1.1,0,2,0.3,2.8,1l-0.7,1
				c-0.7-0.5-1.4-0.8-2.1-0.8c-0.8,0-1.2,0.4-1.2,0.9C79.4,222.6,79.7,222.8,81.2,223.2z"/>
		</g>
		<g class="st8">
			<path class="st3" d="M210.3,220h1.3v6.4h4v1.2h-5.3V220z"/>
			<path class="st3" d="M218.5,220v7.6h-1.3V220H218.5z"/>
			<path class="st3" d="M227.2,227.6h-1.6l-2.6-3.4l-1.2,1.2v2.2h-1.3V220h1.3v3.8l3.6-3.8h1.6l-3.2,3.3L227.2,227.6z"/>
			<path class="st3" d="M234,221.2h-4.3v2h3.8v1.2h-3.8v2h4.4v1.2h-5.7V220h5.7V221.2z"/>
			<path class="st3" d="M238.6,223.2c1.6,0.4,2.5,1,2.5,2.2c0,1.4-1.1,2.3-2.7,2.3c-1.2,0-2.3-0.4-3.2-1.2l0.8-1
				c0.7,0.6,1.5,1,2.4,1c0.8,0,1.4-0.4,1.4-1c0-0.6-0.3-0.9-1.7-1.2c-1.6-0.4-2.5-0.9-2.5-2.3c0-1.3,1.1-2.2,2.6-2.2
				c1.1,0,2,0.3,2.8,1l-0.7,1c-0.7-0.5-1.4-0.8-2.1-0.8c-0.8,0-1.2,0.4-1.2,0.9C236.8,222.6,237.2,222.8,238.6,223.2z"/>
		</g>
		<g class="st8">
			<path class="st3" d="M322.9,234c-2.2,0-3.9-1.7-3.9-3.9c0-2.2,1.6-4,3.9-4c1.4,0,2.3,0.5,3,1.2l-0.9,1c-0.6-0.6-1.3-0.9-2.1-0.9
				c-1.5,0-2.5,1.2-2.5,2.7c0,1.5,1.1,2.7,2.5,2.7c0.9,0,1.5-0.4,2.2-1l0.9,0.9C325.2,233.5,324.3,234,322.9,234z"/>
		</g>
		<g class="st8">
			<path class="st3" d="M330.8,234c-2.3,0-4-1.8-4-3.9c0-2.2,1.7-4,4-4c2.3,0,4,1.8,4,3.9S333.1,234,330.8,234z M330.8,227.4
				c-1.5,0-2.6,1.2-2.6,2.7c0,1.5,1.1,2.7,2.6,2.7s2.6-1.2,2.6-2.7C333.4,228.6,332.3,227.4,330.8,227.4z"/>
			<path class="st3" d="M340.2,232L340.2,232l-2.4-3.6v5.4h-1.3v-7.6h1.4l2.3,3.6l2.3-3.6h1.4v7.6h-1.3v-5.5L340.2,232z"/>
			<path class="st3" d="M349.6,232L349.6,232l-2.4-3.6v5.4h-1.3v-7.6h1.4l2.3,3.6l2.3-3.6h1.4v7.6H352v-5.5L349.6,232z"/>
			<path class="st3" d="M361,227.5h-4.3v2h3.8v1.2h-3.8v2h4.4v1.2h-5.7v-7.6h5.7V227.5z"/>
			<path class="st3" d="M368,226.3h1.3v7.6h-1.1l-4.2-5.4v5.4h-1.3v-7.6h1.2l4.1,5.3V226.3z"/>
		</g>
		<g class="st8">
			<path class="st3" d="M374.5,233.9h-1.4v-6.4h-2.4v-1.2h6.2v1.2h-2.4V233.9z"/>
		</g>
		<g class="st8">
			<path class="st3" d="M381.1,229.5c1.6,0.4,2.5,1,2.5,2.2c0,1.4-1.1,2.3-2.7,2.3c-1.2,0-2.3-0.4-3.2-1.2l0.8-1
				c0.7,0.6,1.5,1,2.4,1c0.8,0,1.4-0.4,1.4-1c0-0.6-0.3-0.9-1.7-1.2c-1.6-0.4-2.5-0.9-2.5-2.3c0-1.3,1.1-2.2,2.6-2.2
				c1.1,0,2,0.3,2.8,1l-0.7,1c-0.7-0.5-1.4-0.8-2.1-0.8c-0.8,0-1.2,0.4-1.2,0.9C379.3,228.9,379.6,229.1,381.1,229.5z"/>
			<path class="st3" d="M389.9,225.2l-4.9,10.1h-1.1l4.9-10.1H389.9z"/>
			<path class="st3" d="M394,233.9h-1.4v-6.4h-2.4v-1.2h6.2v1.2H394V233.9z"/>
			<path class="st3" d="M402.4,226.3h1.1l1.9,5.7l1.8-5.7h1.4L406,234h-1.2l-1.9-5.5l-1.9,5.5h-1.2l-2.7-7.7h1.4l1.8,5.7
				L402.4,226.3z"/>
			<path class="st3" d="M415.7,227.5h-4.3v2h3.8v1.2h-3.8v2h4.4v1.2H410v-7.6h5.7V227.5z"/>
			<path class="st3" d="M423,227.5h-4.3v2h3.8v1.2h-3.8v2h4.4v1.2h-5.7v-7.6h5.7V227.5z"/>
		</g>
		<g class="st8">
			<path class="st3" d="M427.8,233.9h-1.4v-6.4h-2.4v-1.2h6.2v1.2h-2.4V233.9z"/>
		</g>
		<g class="st8">
			<path class="st3" d="M434.5,229.5c1.6,0.4,2.5,1,2.5,2.2c0,1.4-1.1,2.3-2.7,2.3c-1.2,0-2.3-0.4-3.2-1.2l0.8-1
				c0.7,0.6,1.5,1,2.4,1c0.8,0,1.4-0.4,1.4-1c0-0.6-0.3-0.9-1.7-1.2c-1.6-0.4-2.5-0.9-2.5-2.3c0-1.3,1.1-2.2,2.6-2.2
				c1.1,0,2,0.3,2.8,1l-0.7,1c-0.7-0.5-1.4-0.8-2.1-0.8c-0.8,0-1.2,0.4-1.2,0.9C432.7,228.9,433,229.1,434.5,229.5z"/>
		</g>
		<path class="st10" d="M258,92.7c1.2,3.8,1.8,7.7,1.8,11.7"/>
		<g class="st11">
			<path class="st3" d="M175.2,194h-3v-2c-0.1-0.4,0.2-0.8,0.7-0.9h0.1h2.1v-3.2h-2.9c-2-0.2-3.7,1.3-3.9,3.3c0,0.2,0,0.4,0,0.6v2.2
				h-1.8v3.3h1.8v9.3h3.9v-9.3h2.6L175.2,194z"/>
			<path class="st3" d="M286.6,192c-0.7,0.3-1.4,0.6-2.2,0.6c0.8-0.5,1.4-1.3,1.7-2.3c-0.8,0.5-1.6,0.8-2.5,1
				c-0.7-0.8-1.7-1.3-2.8-1.3c-2.2,0.1-3.9,1.9-3.8,4.1c0,0.3,0,0.6,0.1,0.9c-3.1-0.2-6-1.8-7.9-4.3c-0.3,0.6-0.5,1.4-0.5,2.1
				c0,1.4,0.6,2.6,1.7,3.4c-0.6,0-1.2-0.2-1.7-0.5v0.1c0,1.9,1.2,3.6,3.1,4.1c-0.3,0.1-0.7,0.1-1,0.1c-0.2,0-0.5,0-0.7-0.1
				c0.4,1.6,1.9,2.8,3.6,2.9c-1.3,1.1-3,1.8-4.8,1.8c-0.3,0-0.6,0-0.9-0.1c1.7,1.2,3.8,1.9,5.9,1.9c7.1,0,10.9-6.3,10.9-11.8
				c0-0.2,0-0.4,0-0.5C285.5,193.5,286.1,192.8,286.6,192z"/>
			<path class="st3" d="M63,189.4c-0.1,0-0.3,0-0.4,0c-0.5,0.1-1,0.5-1.1,1c0,0,0,0.4,0,0.5v2.5c0,0.3,0.1,0.6,0.3,0.8
				c0.2,0.3,0.6,0.6,1,0.6H63c0.4,0,0.7-0.3,1-0.6c0.1-0.2,0.2-0.5,0.3-0.8v-2.5c0-0.1,0-0.5,0-0.5C64,189.9,63.6,189.5,63,189.4
				 M63.3,190.9v2.5c0,0.6-0.5,0.6-0.5,0.6s-0.5,0.1-0.5-0.6v-2.5c0-0.7,0.5-0.6,0.5-0.6C63.3,190.2,63.3,190.9,63.3,190.9
				 M59.5,190.4l-0.8-2.8h-1.2l1.4,4.2v2.9h1v-2.9l1.3-4.2h-1.1L59.5,190.4z M66.8,189.4v4.1c-0.1,0.2-0.3,0.4-0.6,0.4
				c-0.3,0-0.3-0.3-0.3-0.3v-4.3h-1v4.6c-0.1,0.4,0.2,0.7,0.6,0.8c0.1,0,0.1,0,0.2,0c0.5,0,1.1-0.6,1.1-0.6v0.6h1v-5.3H66.8z"/>
			<path class="st3" d="M69.8,196.3c-2.2-0.2-4.5-0.3-6.7-0.2c-2.8,0-4.3,0.1-4.5,0.1c-1.8,0.1-3.1-0.1-3.5,1.8
				c-0.2,1.2-0.3,2.4-0.3,3.6c0.1,2.4-0.1,5.2,2.2,5.4c1.2,0.1,4.2,0.1,6.2,0.1c2.2,0.1,4.5,0,6.7-0.3c0.4-0.1,0.8-0.4,1-0.8
				c0.6-0.8,0.6-2,0.7-4.6C71.4,199.4,71.6,196.6,69.8,196.3 M59.7,198.9h-1.2v6.1h-1.1v-6.1h-1.1v-1.1h3.3
				C59.7,198.2,59.7,198.5,59.7,198.9 M62.7,205h-1v-0.6c0,0-0.5,0.7-1.1,0.7s-0.8-0.4-0.8-1v-4.4h1v4.3c0,0,0,0.2,0.3,0.2
				s0.5-0.2,0.6-0.5v-4.1h1V205z M66.4,204c0,0-0.1,1-0.7,1c-0.5,0-0.9-0.2-1.2-0.6v0.6h-1v-7.2h1v2.3c0,0,0.5-0.6,1-0.6
				s0.9,0.4,0.9,0.9v0.1L66.4,204z M70,204c-0.2,0.9-1.3,1-1.3,1c-0.8,0.1-1.5-0.6-1.6-1.4c0-0.1,0-0.1,0-0.2V201
				c0-0.2,0-0.3,0.1-0.5c0.1-0.3,0.2-0.9,1.4-0.9c0.7,0,1.3,0.6,1.4,1.3v0.1v1.5h-1.9v1.1c0,0.3,0.2,0.6,0.5,0.6h0.1
				c0.4,0,0.4-0.6,0.4-0.6v-0.4h1C70.1,203.4,70.1,203.7,70,204 M69.1,201c0,0-0.1-0.6-0.5-0.6s-0.5,0.5-0.5,0.6v0.7h1V201z
				 M65,200.5c-0.2,0-0.3,0.1-0.5,0.2v3.3c0.1,0.1,0.3,0.2,0.5,0.2c0.4,0,0.4-0.5,0.4-0.5V201C65.4,200.6,65.3,200.4,65,200.5"/>
		</g>
	</g>
</g>
</svg>
